<?xml version="1.0" encoding="iso-8859-1"?>
<!-- Generator: Adobe Illustrator 16.0.0, SVG Export Plug-In . SVG Version: 6.00 Build 0)  -->
<!DOCTYPE svg PUBLIC "-//W3C//DTD SVG 1.1//EN" "http://www.w3.org/Graphics/SVG/1.1/DTD/svg11.dtd">
<svg version="1.1" id="Layer_1" xmlns="http://www.w3.org/2000/svg" xmlns:xlink="http://www.w3.org/1999/xlink" x="0px" y="0px"
	 width="31.182px" height="39.989px" viewBox="0 0 31.182 39.989" style="enable-background:new 0 0 31.182 39.989;"
	 xml:space="preserve">
<path style="fill:#FFFFFF;" d="M28.598,23.867c-0.016-0.005-0.032-0.01-0.048-0.015l-4.298-1.248l-3.051-2.964v-0.797
	c1.46-1.485,2.38-3.537,2.38-5.8V8.201c0-4.51-3.586-8.201-8.036-8.201c-4.44,0-8.052,3.679-8.052,8.201v4.843
	c0,2.263,0.92,4.314,2.38,5.8v0.797L6.842,22.6l-4.218,1.254c-0.014,0.004-0.028,0.009-0.041,0.013
	c-1.851,0.628-2.935,2.624-2.479,4.553l2.034,10.621c0.107,0.559,0.588,0.947,1.127,0.947c0.032,0,0.064-0.002,0.097-0.005
	c0.029,0.002,0.058,0.005,0.088,0.005h24.356c0.546,0,1.017-0.391,1.126-0.936l2.145-10.627
	C31.536,26.495,30.452,24.497,28.598,23.867z M22.107,23.751l-3.29,5.026l-1.793-1.826l3.254-4.994L22.107,23.751z M15.545,2.343
	c1.878,0,3.548,0.922,4.599,2.345c-1.079,1.459-2.785,2.341-4.599,2.341H9.909C10.444,4.359,12.767,2.343,15.545,2.343z
	 M9.779,13.043V9.372h5.767c2.127,0,4.147-0.866,5.635-2.347c0.076,0.38,0.116,0.773,0.116,1.175v4.843
	c0,3.23-2.58,5.858-5.751,5.858C12.374,18.901,9.779,16.273,9.779,13.043z M10.813,21.957l3.253,4.994l-1.793,1.826l-3.29-5.026
	L10.813,21.957z M14.395,37.646H4.214c-0.009-0.044-1.859-9.717-1.871-9.761c-0.185-0.753,0.232-1.534,0.95-1.788l3.733-1.111
	l4.111,6.281c0.402,0.614,1.256,0.702,1.77,0.178l1.487-1.515V37.646L14.395,37.646z M12.786,20.748
	c0.861,0.321,1.791,0.496,2.759,0.496s1.898-0.175,2.759-0.496l-2.759,4.235L12.786,20.748z M28.827,27.933l-1.96,9.713H16.68V29.93
	l1.502,1.515c0.513,0.523,1.368,0.436,1.77-0.178l4.111-6.281l3.828,1.112C28.52,26.321,29.022,26.979,28.827,27.933z"/>
<path style="fill:#FFFFFF;" d="M24.747,32.959h-2.301c-0.635,0-1.15,0.524-1.15,1.171c0,0.647,0.515,1.172,1.15,1.172h2.301
	c0.635,0,1.15-0.524,1.15-1.172C25.897,33.484,25.382,32.959,24.747,32.959z"/>
</svg>
