<?xml version="1.0" encoding="iso-8859-1"?>
<!-- Generator: Adobe Illustrator 16.0.0, SVG Export Plug-In . SVG Version: 6.00 Build 0)  -->
<!DOCTYPE svg PUBLIC "-//W3C//DTD SVG 1.1//EN" "http://www.w3.org/Graphics/SVG/1.1/DTD/svg11.dtd">
<svg version="1.1" id="Layer_1" xmlns="http://www.w3.org/2000/svg" xmlns:xlink="http://www.w3.org/1999/xlink" x="0px" y="0px"
	 width="31.888px" height="31.991px" viewBox="0 0 31.888 31.991" style="enable-background:new 0 0 31.888 31.991;"
	 xml:space="preserve">
<path style="fill:#FFFFFF;" d="M15.944,0C7.152,0,0,7.176,0,15.996s7.152,15.995,15.944,15.995s15.944-7.176,15.944-15.995
	C31.888,7.176,24.735,0,15.944,0z M15.944,29.711c-7.539,0-13.672-6.153-13.672-13.716c0-7.563,6.133-13.716,13.672-13.716
	s13.671,6.153,13.671,13.716C29.615,23.559,23.482,29.711,15.944,29.711z"/>
<path style="fill:#FFFFFF;" d="M15.944,17.211c-2.255,0-4.09,1.841-4.09,4.104s1.835,4.104,4.09,4.104s4.09-1.84,4.09-4.104
	C20.034,19.052,18.199,17.211,15.944,17.211z M15.944,23.139c-1.002,0-1.818-0.818-1.818-1.824c0-1.006,0.815-1.824,1.818-1.824
	s1.818,0.818,1.818,1.824C17.762,22.321,16.946,23.139,15.944,23.139z"/>
<path style="fill:#FFFFFF;" d="M15.944,9.802c-0.627,0-1.136,0.51-1.136,1.14v7.409c0,0.63,0.509,1.14,1.136,1.14
	s1.136-0.51,1.136-1.14v-7.409C17.08,10.313,16.571,9.802,15.944,9.802z"/>
<path style="fill:#FFFFFF;" d="M15.944,0.038c-0.627,0-1.136,0.51-1.136,1.14v2.964c0,0.629,0.509,1.14,1.136,1.14
	s1.136-0.51,1.136-1.14V1.178C17.08,0.548,16.571,0.038,15.944,0.038z"/>
<path style="fill:#FFFFFF;" d="M30.714,14.856H27.76c-0.627,0-1.136,0.51-1.136,1.14c0,0.629,0.509,1.14,1.136,1.14h2.954
	c0.627,0,1.136-0.51,1.136-1.14C31.85,15.366,31.341,14.856,30.714,14.856z"/>
<path style="fill:#FFFFFF;" d="M4.128,14.856H1.174c-0.627,0-1.136,0.51-1.136,1.14c0,0.629,0.509,1.14,1.136,1.14h2.954
	c0.628,0,1.136-0.51,1.136-1.14C5.264,15.366,4.755,14.856,4.128,14.856z"/>
<path style="fill:#FFFFFF;" d="M27.2,4.703c-0.444-0.445-1.163-0.445-1.606,0l-2.083,2.09c-0.444,0.445-0.444,1.167,0,1.612
	c0.222,0.223,0.512,0.334,0.803,0.334c0.291,0,0.581-0.111,0.803-0.334l2.083-2.09C27.644,5.87,27.644,5.148,27.2,4.703z"/>
<path style="fill:#FFFFFF;" d="M8.377,6.793l-2.083-2.09c-0.443-0.445-1.163-0.445-1.606,0c-0.444,0.445-0.444,1.167,0,1.612
	l2.083,2.09c0.221,0.223,0.512,0.334,0.803,0.334s0.582-0.111,0.803-0.334C8.821,7.96,8.821,7.238,8.377,6.793z"/>
<path style="fill:#FFFFFF;" d="M18.974,20.555h10.793v2.28H18.974V20.555z"/>
<path style="fill:#FFFFFF;" d="M2.272,20.555H12.99v2.28H2.272V20.555z"/>
</svg>
