<?xml version="1.0" encoding="iso-8859-1"?>
<!-- Generator: Adobe Illustrator 16.0.0, SVG Export Plug-In . SVG Version: 6.00 Build 0)  -->
<!DOCTYPE svg PUBLIC "-//W3C//DTD SVG 1.1//EN" "http://www.w3.org/Graphics/SVG/1.1/DTD/svg11.dtd">
<svg version="1.1" id="Layer_1" xmlns="http://www.w3.org/2000/svg" xmlns:xlink="http://www.w3.org/1999/xlink" x="0px" y="0px"
	 width="43.897px" height="28.02px" viewBox="0 0 43.897 28.02" style="enable-background:new 0 0 43.897 28.02;"
	 xml:space="preserve">
<path style="fill:#FFFFFF;" d="M34.66,19.212c-0.861-1.834-3.943-4.38-6.921-6.841c-1.661-1.371-3.23-2.667-4.23-3.689
	c-0.251-0.258-0.625-0.34-0.957-0.219c-0.617,0.228-0.997,0.403-1.297,0.54c-0.458,0.209-0.611,0.28-1.228,0.344
	c-0.272,0.028-0.518,0.178-0.669,0.409c-1.293,1.975-2.632,1.807-3.526,1.5c-0.285-0.097-0.336-0.222-0.364-0.342
	c-0.192-0.82,0.771-2.729,2.021-4.005c2.972-3.038,4.505-3.798,7.742-2.32c3.673,1.678,7.353,2.991,7.389,3.004
	c0.481,0.17,0.999-0.088,1.166-0.575c0.165-0.488-0.086-1.02-0.563-1.19c-0.037-0.013-3.644-1.3-7.243-2.946
	c-4.194-1.915-6.495-0.654-9.782,2.705c-1.251,1.277-2.95,3.863-2.511,5.759c0.188,0.807,0.745,1.405,1.571,1.683
	c2.072,0.699,3.963,0.03,5.372-1.879c0.582-0.091,0.898-0.226,1.374-0.444c0.171-0.079,0.373-0.17,0.64-0.28
	c1.046,1.003,2.458,2.17,3.945,3.398c2.689,2.221,5.738,4.739,6.424,6.196c0.338,0.719-0.025,1.188-0.272,1.403
	c-0.362,0.317-0.858,0.418-1.127,0.226c-0.296-0.207-0.682-0.22-0.987-0.033c-0.308,0.187-0.479,0.54-0.441,0.902
	c0.062,0.594-0.47,0.934-0.701,1.052c-0.585,0.303-1.196,0.25-1.425,0.034c-0.256-0.243-0.624-0.313-0.949-0.19
	c-0.326,0.125-0.552,0.432-0.585,0.787c-0.055,0.612-0.499,1.201-1.079,1.431c-0.28,0.108-0.686,0.174-1.05-0.167
	c-0.227-0.209-0.542-0.29-0.836-0.216c-0.298,0.075-0.538,0.295-0.642,0.588c-0.035,0.093-0.114,0.317-0.97,0.317
	c-0.609,0-1.705-0.42-2.241-0.783c-0.642-0.432-4.667-3.499-8.145-6.473c-0.488-0.42-1.333-1.321-2.08-2.117
	c-0.662-0.706-1.268-1.347-1.579-1.616c-0.39-0.336-0.966-0.286-1.29,0.11c-0.325,0.394-0.278,0.984,0.108,1.317
	c0.284,0.245,0.833,0.837,1.438,1.481c0.816,0.87,1.659,1.771,2.227,2.257c3.405,2.912,7.499,6.056,8.314,6.603
	c0.673,0.452,2.124,1.087,3.247,1.087c0.902,0,1.595-0.211,2.076-0.624c0.644,0.256,1.375,0.258,2.08-0.022
	c0.832-0.329,1.516-0.992,1.904-1.795c0.72,0.157,1.545,0.046,2.295-0.338c0.733-0.377,1.264-0.955,1.527-1.629
	c0.728,0.04,1.478-0.224,2.098-0.768C34.979,21.926,35.268,20.499,34.66,19.212z"/>
<path style="fill:#FFFFFF;" d="M18.29,3.735h-8.23c-0.505,0-0.915,0.418-0.915,0.934s0.41,0.934,0.915,0.934h8.23
	c0.505,0,0.915-0.418,0.915-0.934S18.795,3.735,18.29,3.735z"/>
<path style="fill:#FFFFFF;" d="M37.34,17.224c-0.284-0.428-0.851-0.545-1.27-0.254l-2.674,1.834c-0.419,0.288-0.53,0.869-0.249,1.296
	c0.177,0.267,0.466,0.413,0.761,0.413c0.174,0,0.351-0.05,0.508-0.159l2.674-1.834C37.51,18.233,37.622,17.652,37.34,17.224z"/>
<path style="fill:#FFFFFF;" d="M31.663,21.681c-0.655-0.526-3.583-3.588-5.394-5.516c-0.35-0.374-0.929-0.387-1.293-0.028
	c-0.366,0.357-0.377,0.949-0.028,1.321c0.47,0.5,4.617,4.915,5.581,5.691c0.167,0.135,0.368,0.2,0.565,0.2
	c0.269,0,0.538-0.123,0.72-0.357C32.127,22.589,32.06,22.001,31.663,21.681z"/>
<path style="fill:#FFFFFF;" d="M28.008,23.555c-1.096-0.895-3.849-3.881-4.471-4.573c-0.344-0.381-0.92-0.403-1.293-0.056
	c-0.372,0.35-0.397,0.942-0.055,1.321c0.033,0.036,3.318,3.658,4.675,4.767c0.168,0.137,0.371,0.204,0.571,0.204
	c0.267,0,0.534-0.121,0.715-0.349C28.465,24.465,28.401,23.876,28.008,23.555z"/>
<path style="fill:#FFFFFF;" d="M24.368,25.436c-1.304-1.123-3.973-4.024-4.494-4.593c-0.345-0.377-0.925-0.398-1.293-0.045
	c-0.37,0.353-0.388,0.943-0.044,1.321c0.75,0.82,3.303,3.584,4.651,4.747c0.172,0.147,0.38,0.22,0.589,0.22
	c0.26,0,0.52-0.114,0.701-0.333C24.803,26.357,24.754,25.769,24.368,25.436z"/>
<path style="fill:#FFFFFF;" d="M10.689,2.124c-1.568-1.517-7.836-2.008-9.72-2.122c-0.26-0.013-0.5,0.075-0.682,0.252
	C0.104,0.429,0,0.676,0,0.934v16.812c0,0.516,0.409,0.935,0.914,0.935h5.487c0.395,0,0.746-0.26,0.869-0.645
	c0.134-0.418,3.285-10.296,3.7-15.153C10.994,2.598,10.892,2.317,10.689,2.124z M5.734,16.812H1.829V1.935
	c2.939,0.237,6.111,0.753,7.263,1.324C8.607,7.35,6.414,14.618,5.734,16.812z"/>
<path style="fill:#FFFFFF;" d="M42.982,1.867c-7.181,0-11.165,1.878-11.331,1.956c-0.238,0.114-0.415,0.325-0.488,0.581
	s-0.037,0.53,0.101,0.758c1.13,1.859,4.669,12.181,5.35,14.699c0.109,0.405,0.47,0.686,0.881,0.686h5.487
	c0.505,0,0.915-0.418,0.915-0.934V2.801C43.897,2.284,43.487,1.867,42.982,1.867z M42.068,18.68h-3.889
	c-0.867-2.884-3.428-10.405-4.856-13.513c1.396-0.484,4.394-1.315,8.745-1.42V18.68z"/>
</svg>
