<?xml version="1.0" encoding="utf-8"?>
<!-- Generator: Adobe Illustrator 16.0.0, SVG Export Plug-In . SVG Version: 6.00 Build 0)  -->
<!DOCTYPE svg PUBLIC "-//W3C//DTD SVG 1.1//EN" "http://www.w3.org/Graphics/SVG/1.1/DTD/svg11.dtd">
<svg version="1.1" id="Layer_1" xmlns="http://www.w3.org/2000/svg" xmlns:xlink="http://www.w3.org/1999/xlink" x="0px" y="0px"
	 width="30px" height="30px" viewBox="1.75 -4.375 50 50" enable-background="new 1.75 -4.375 50 50" xml:space="preserve">
<g>
	<path fill="#E77E23" d="M7.696,2.501h38.107c2.567,0,4.647,2.08,4.647,4.647v26.954c0,2.566-2.08,4.646-4.647,4.646H7.696
		c-2.567,0-4.647-2.08-4.647-4.646V7.148C3.049,4.582,5.129,2.501,7.696,2.501z"/>
	<path fill="#FFFFFF" d="M35.631,11.756c-1.76-1.807-4.619-1.807-6.378,0L17.563,23.729c-0.091,0.094-0.148,0.213-0.166,0.344
		l-0.868,6.572c-0.025,0.187,0.039,0.373,0.167,0.504c0.107,0.111,0.26,0.178,0.412,0.178c0.026,0,0.053,0,0.078-0.005l3.865-0.536
		c0.322-0.044,0.548-0.347,0.504-0.677s-0.339-0.561-0.662-0.52l-3.099,0.429l0.605-4.585l4.708,4.825
		c0.109,0.11,0.261,0.178,0.413,0.178c0.153,0,0.305-0.062,0.414-0.178l11.693-11.97c0.854-0.872,1.323-2.033,1.323-3.269
		S36.484,12.625,35.631,11.756z M29.48,13.228l1.962,2.012L20.775,26.167l-1.963-2.011L29.48,13.228z M23.53,28.986l-1.919-1.967
		l10.668-10.929l1.919,1.965L23.53,28.986z M35.018,17.196l-4.698-4.812c0.597-0.504,1.34-0.781,2.124-0.781
		c0.892,0,1.728,0.357,2.358,1c0.631,0.641,0.976,1.501,0.976,2.417C35.777,15.826,35.508,16.585,35.018,17.196z"/>
</g>
</svg>
