<?xml version="1.0" encoding="iso-8859-1"?>
<!-- Generator: Adobe Illustrator 16.0.0, SVG Export Plug-In . SVG Version: 6.00 Build 0)  -->
<!DOCTYPE svg PUBLIC "-//W3C//DTD SVG 1.1//EN" "http://www.w3.org/Graphics/SVG/1.1/DTD/svg11.dtd">
<svg version="1.1" id="Layer_1" xmlns="http://www.w3.org/2000/svg" xmlns:xlink="http://www.w3.org/1999/xlink" x="0px" y="0px"
	 width="38.909px" height="33.037px" viewBox="0 0 38.909 33.037" style="enable-background:new 0 0 38.909 33.037;"
	 xml:space="preserve">
<path style="fill:#FFFFFF;" d="M27.643,17.991h-5.287c-1.447,0-2.624,1.144-2.624,2.551v3.943c0,1.407,1.177,2.551,2.624,2.551h5.287
	c1.447,0,2.624-1.144,2.624-2.551v-3.943C30.267,19.135,29.09,17.991,27.643,17.991z M28.358,24.485
	c0,0.387-0.326,0.696-0.715,0.696h-5.287c-0.397,0-0.715-0.317-0.715-0.696v-3.943c0-0.387,0.326-0.696,0.715-0.696h5.287
	c0.397,0,0.715,0.317,0.715,0.696V24.485z"/>
<path style="fill:#FFFFFF;" d="M38.909,10.824c0-0.162-0.04-0.317-0.127-0.456l-5.788-9.896C32.827,0.186,32.509,0,32.167,0H6.734
	c-0.342,0-0.66,0.178-0.827,0.472l-5.78,9.896C0.047,10.507,0,10.662,0,10.824c0,2.219,1.375,4.121,3.339,4.964v16.321
	c0,0.51,0.429,0.928,0.954,0.928h5.271c0.008,0,0.016,0,0.024,0h7.394c0.008,0,0.016,0,0.024,0h17.602
	c0.525,0,0.954-0.417,0.954-0.928V15.904c0-0.039,0-0.07-0.008-0.101C37.525,14.96,38.909,13.051,38.909,10.824z M7.29,1.863h24.32
	l4.523,7.739H2.774L7.29,1.863z M27.691,11.45c-0.302,1.67-1.805,2.938-3.609,2.938c-1.805,0-3.308-1.268-3.61-2.938H27.691z
	 M18.444,11.45c-0.302,1.67-1.805,2.938-3.609,2.938s-3.307-1.268-3.617-2.938H18.444z M1.971,11.45h7.227
	c-0.302,1.67-1.813,2.938-3.617,2.938C3.776,14.396,2.273,13.12,1.971,11.45z M16.028,31.181h-5.486V21.169
	c0-0.727,0.604-1.322,1.359-1.322h2.774c0.748,0,1.36,0.587,1.36,1.322v10.012H16.028z M33.653,31.181H17.936V21.169
	c0-1.748-1.463-3.178-3.268-3.178h-2.774c-1.797,0-3.268,1.422-3.268,3.178v10.02H5.247V16.244c0.111,0.008,0.222,0.008,0.334,0.008
	c1.924,0,3.625-0.951,4.627-2.397c1.001,1.446,2.703,2.397,4.627,2.397c1.924,0,3.618-0.951,4.627-2.397
	c1.002,1.446,2.703,2.397,4.62,2.397c1.924,0,3.617-0.951,4.619-2.397c1.001,1.446,2.703,2.397,4.627,2.397
	c0.111,0,0.214-0.008,0.326-0.008V31.181L33.653,31.181z M33.328,14.396c-1.805,0-3.308-1.268-3.609-2.938h7.227
	C36.635,13.12,35.132,14.396,33.328,14.396z"/>
</svg>
