<?xml version="1.0" encoding="iso-8859-1"?>
<!-- Generator: Adobe Illustrator 16.0.0, SVG Export Plug-In . SVG Version: 6.00 Build 0)  -->
<!DOCTYPE svg PUBLIC "-//W3C//DTD SVG 1.1//EN" "http://www.w3.org/Graphics/SVG/1.1/DTD/svg11.dtd">
<svg version="1.1" id="Layer_1" xmlns="http://www.w3.org/2000/svg" xmlns:xlink="http://www.w3.org/1999/xlink" x="0px" y="0px"
	 width="36.913px" height="27.03px" viewBox="0 0 36.913 27.03" style="enable-background:new 0 0 36.913 27.03;"
	 xml:space="preserve">
<path style="fill:#FFFFFF;" d="M35.471,15.537c0.796,0,1.442-0.644,1.442-1.438V5.751C36.913,2.58,34.326,0,31.146,0H5.768
	C2.587,0,0,2.58,0,5.751v15.528c0,3.171,2.587,5.751,5.768,5.751h25.378c3.18,0,5.768-2.58,5.768-5.751
	c0-0.794-0.646-1.438-1.442-1.438s-1.442,0.644-1.442,1.438c0,1.585-1.293,2.875-2.884,2.875H5.768c-1.59,0-2.884-1.29-2.884-2.875
	v-9.408h3.781c0.595,1.673,2.198,2.875,4.078,2.875c0.557,0,1.104-0.13,1.624-0.339c-0.529,1.141-1.323,2.292-2.514,3.108
	c-0.656,0.45-0.822,1.345-0.371,2c0.28,0.405,0.73,0.623,1.189,0.623c0.282,0,0.566-0.082,0.816-0.253
	c1.665-1.143,2.755-2.701,3.467-4.221c0.718,1.52,1.813,3.079,3.478,4.221c0.25,0.171,0.534,0.253,0.816,0.253
	c0.459,0,0.91-0.218,1.189-0.623c0.451-0.654,0.286-1.549-0.371-2c-1.184-0.812-1.981-1.965-2.517-3.109
	c0.521,0.209,1.069,0.34,1.627,0.34c1.88,0,3.483-1.202,4.078-2.875h10.774v2.229C34.029,14.893,34.675,15.537,35.471,15.537z
	 M10.742,11.871c-0.795,0-1.442-0.645-1.442-1.438s0.647-1.438,1.442-1.438c0.664,0,1.622,0.697,2.383,1.436
	C12.387,11.145,11.42,11.871,10.742,11.871z M19.177,11.871c-0.663,0-1.622-0.698-2.383-1.436c0.739-0.714,1.706-1.439,2.383-1.439
	c0.795,0,1.442,0.645,1.442,1.438S19.973,11.871,19.177,11.871z M23.255,8.995c-0.595-1.674-2.198-2.876-4.078-2.876
	c-1.637,0-3.185,1.118-4.217,2.083c-1.033-0.966-2.581-2.083-4.218-2.083c-1.88,0-3.482,1.202-4.078,2.876H2.884V5.751
	c0-1.585,1.293-2.875,2.884-2.875h25.378c1.59,0,2.884,1.29,2.884,2.875v3.244H23.255L23.255,8.995z"/>
</svg>
