<?xml version="1.0" encoding="iso-8859-1"?>
<!-- Generator: Adobe Illustrator 16.0.0, SVG Export Plug-In . SVG Version: 6.00 Build 0)  -->
<!DOCTYPE svg PUBLIC "-//W3C//DTD SVG 1.1//EN" "http://www.w3.org/Graphics/SVG/1.1/DTD/svg11.dtd">
<svg version="1.1" id="Layer_1" xmlns="http://www.w3.org/2000/svg" xmlns:xlink="http://www.w3.org/1999/xlink" x="0px" y="0px"
	 width="36.913px" height="26.029px" viewBox="0 0 36.913 26.029" style="enable-background:new 0 0 36.913 26.029;"
	 xml:space="preserve">
<path style="fill:#FFFFFF;" d="M33.669,0H3.244C1.455,0,0,1.459,0,3.254v19.521c0,1.794,1.455,3.253,3.244,3.253h30.425
	c1.789,0,3.244-1.459,3.244-3.253V3.254C36.913,1.459,35.458,0,33.669,0z M10.814,23.86h-7.57c-0.596,0-1.082-0.486-1.082-1.084
	v-11.93h2.34c0.54,1.616,2.194,2.589,3.871,2.26L6.67,15.667c-0.331,0.499-0.197,1.172,0.3,1.504c0.497,0.333,1.168,0.198,1.5-0.301
	l2.345-3.527V23.86z M6.489,9.759c0-0.987,1.095-1.578,1.917-1.029l1.541,1.03l-1.541,1.03C7.586,11.338,6.489,10.754,6.489,9.759z
	 M10.814,7.734L9.605,6.926C7.738,5.678,5.21,6.56,4.503,8.676h-2.34V3.254c0-0.598,0.485-1.085,1.082-1.085h7.57V7.734z
	 M34.75,22.775c0,0.598-0.485,1.084-1.082,1.084H12.977V13.343l2.345,3.527c0.332,0.499,1.003,0.633,1.5,0.301
	c0.497-0.332,0.631-1.005,0.3-1.504l-1.703-2.562c1.669,0.328,3.328-0.636,3.87-2.259H34.75V22.775z M13.845,9.761l1.541-1.03
	c0.819-0.547,1.917,0.037,1.917,1.032c0,0.989-1.096,1.578-1.917,1.029L13.845,9.761z M34.75,8.676H19.289
	c-0.707-2.116-3.235-2.999-5.103-1.75l-1.209,0.809V2.169h20.692c0.596,0,1.082,0.487,1.082,1.085V8.676z"/>
<path style="fill:#FFFFFF;" d="M31.506,15.184H22.71c-0.597,0-1.081,0.486-1.081,1.084c0,0.599,0.484,1.084,1.081,1.084h8.796
	c0.598,0,1.082-0.485,1.082-1.084C32.587,15.669,32.104,15.184,31.506,15.184z"/>
<path style="fill:#FFFFFF;" d="M31.506,19.522H22.71c-0.597,0-1.081,0.485-1.081,1.084c0,0.599,0.484,1.084,1.081,1.084h8.796
	c0.598,0,1.082-0.486,1.082-1.084C32.587,20.007,32.104,19.522,31.506,19.522z"/>
</svg>
