<?xml version="1.0" encoding="iso-8859-1"?>
<!-- Generator: Adobe Illustrator 16.0.0, SVG Export Plug-In . SVG Version: 6.00 Build 0)  -->
<!DOCTYPE svg PUBLIC "-//W3C//DTD SVG 1.1//EN" "http://www.w3.org/Graphics/SVG/1.1/DTD/svg11.dtd">
<svg version="1.1" id="Layer_1" xmlns="http://www.w3.org/2000/svg" xmlns:xlink="http://www.w3.org/1999/xlink" x="0px" y="0px"
	 width="27.958px" height="36.739px" viewBox="0 0 27.958 36.739" style="enable-background:new 0 0 27.958 36.739;"
	 xml:space="preserve">
<path style="fill:#FFFFFF;" d="M27.346,2.714l-2.253-2.266c-0.615-0.608-1.702-0.591-2.287,0.008l-1.464,1.472L19.89,0.47
	c-0.612-0.605-1.66-0.614-2.289,0.008l-1.442,1.45l-1.321-1.328c-0.612-0.606-1.658-0.614-2.287,0.008l-1.313,1.32L9.915,0.601
	C9.303-0.005,8.258-0.014,7.629,0.608l-1.313,1.32L4.995,0.601C4.382-0.005,3.336-0.014,2.708,0.608L0.613,2.714
	C0.218,3.111,0,3.639,0,4.201l0.001,21.684H0v6.632c0,0.562,0.218,1.09,0.613,1.486l2.103,2.114
	c0.612,0.605,1.658,0.615,2.287-0.009l1.313-1.319l1.321,1.329c0.613,0.605,1.659,0.614,2.287-0.008l1.313-1.32l1.322,1.329
	c0.613,0.605,1.659,0.614,2.287-0.008l1.313-1.32l1.45,1.458c0.612,0.605,1.66,0.614,2.289-0.008l1.443-1.45l1.456,1.464
	c0.302,0.309,0.724,0.486,1.155,0.486c0.429,0,0.833-0.167,1.148-0.478l2.246-2.258c0.394-0.396,0.612-0.924,0.612-1.486v-6.633V4.2
	C27.958,3.639,27.74,3.111,27.346,2.714z M25.172,32.229l-1.003,1.008c-0.057,0.058-0.135,0.09-0.216,0.09
	c-0.082,0-0.159-0.032-0.217-0.09l-1.255-1.263c-0.306-0.303-0.711-0.47-1.14-0.47c-0.433,0-0.84,0.169-1.146,0.478l-1.227,1.233
	c-0.058,0.058-0.135,0.09-0.217,0.09c-0.081,0-0.159-0.032-0.216-0.09L17.3,31.974c-0.612-0.606-1.659-0.614-2.287,0.008
	l-1.097,1.103c-0.12,0.12-0.313,0.12-0.433,0l-1.106-1.111c-0.612-0.606-1.658-0.614-2.287,0.008l-1.097,1.103
	c-0.12,0.12-0.313,0.12-0.433,0l-1.106-1.111c-0.612-0.606-1.659-0.615-2.287,0.009l-1.097,1.102c-0.12,0.12-0.313,0.12-0.433,0
	l-0.852-0.856v-6.344h0.001L2.786,4.489l0.852-0.855c0.057-0.058,0.135-0.09,0.216-0.09s0.159,0.033,0.216,0.09l1.104,1.11
	C5.788,5.35,6.834,5.358,7.463,4.736l1.096-1.103c0.12-0.12,0.313-0.121,0.433,0l1.106,1.111c0.612,0.606,1.659,0.614,2.287-0.008
	l1.097-1.103c0.119-0.12,0.313-0.12,0.433,0l1.106,1.111c0.612,0.606,1.658,0.614,2.287-0.008l1.226-1.233
	c0.058-0.058,0.135-0.09,0.216-0.09c0.082,0,0.159,0.032,0.217,0.09l1.227,1.233c0.609,0.614,1.664,0.625,2.295,0l1.248-1.254
	c0.058-0.058,0.135-0.09,0.216-0.09s0.159,0.032,0.216,0.09l1.003,1.007v21.395V32.229L25.172,32.229L25.172,32.229z"/>
<path style="fill:#FFFFFF;" d="M6.578,11.891h7.401c0.77,0,1.393-0.627,1.393-1.4s-0.623-1.4-1.393-1.4H6.578
	c-0.77,0-1.393,0.626-1.393,1.4S5.808,11.891,6.578,11.891z"/>
<path style="fill:#FFFFFF;" d="M20.946,16.091H6.578c-0.77,0-1.393,0.627-1.393,1.4c0,0.773,0.623,1.4,1.393,1.4h14.367
	c0.77,0,1.394-0.627,1.394-1.4C22.339,16.718,21.716,16.091,20.946,16.091z"/>
<path style="fill:#FFFFFF;" d="M6.578,25.892h10.188c0.77,0,1.393-0.627,1.393-1.4c0-0.773-0.623-1.4-1.393-1.4H6.578
	c-0.77,0-1.393,0.627-1.393,1.4C5.185,25.265,5.808,25.892,6.578,25.892z"/>
</svg>
