<?xml version="1.0" encoding="iso-8859-1"?>
<!-- Generator: Adobe Illustrator 16.0.0, SVG Export Plug-In . SVG Version: 6.00 Build 0)  -->
<!DOCTYPE svg PUBLIC "-//W3C//DTD SVG 1.1//EN" "http://www.w3.org/Graphics/SVG/1.1/DTD/svg11.dtd">
<svg version="1.1" id="Layer_1" xmlns="http://www.w3.org/2000/svg" xmlns:xlink="http://www.w3.org/1999/xlink" x="0px" y="0px"
	 width="39.906px" height="22.024px" viewBox="0 0 39.906 22.024" style="enable-background:new 0 0 39.906 22.024;"
	 xml:space="preserve">
<path style="fill:#FFFFFF;" d="M35.436,10.728c1.255-1.119,2.054-2.78,2.054-4.633C37.489,2.734,34.866,0,31.641,0
	c-3.224,0-5.847,2.734-5.848,6.094c0-3.36-2.624-6.094-5.848-6.094c-3.225,0-5.848,2.734-5.848,6.095c0,1.855,0.8,3.519,2.059,4.638
	c-0.759,0.418-1.448,0.959-2.044,1.596c-0.607-0.649-1.305-1.188-2.065-1.604c1.253-1.119,2.05-2.779,2.05-4.63
	C14.097,2.734,11.474,0,8.25,0C5.025,0,2.401,2.734,2.401,6.095c0,1.853,0.798,3.514,2.054,4.633C1.864,12.147,0,15.006,0,18.368
	v2.438c0,0.673,0.508,1.219,1.154,1.219c0.444,0,36.825,0,37.583,0c0.646,0,1.169-0.545,1.169-1.219v-2.438
	C39.906,15.04,38.055,12.163,35.436,10.728z M31.641,2.438c1.935,0,3.509,1.641,3.509,3.657c0,2.017-1.574,3.657-3.509,3.657
	s-3.509-1.641-3.509-3.657C28.132,4.079,29.707,2.438,31.641,2.438z M25.793,6.098c0.001,1.85,0.797,3.509,2.05,4.627
	c-0.76,0.415-1.458,0.954-2.065,1.604c-0.596-0.637-1.285-1.177-2.044-1.596C24.992,9.615,25.792,7.953,25.793,6.098z M19.945,2.438
	c1.935,0,3.508,1.641,3.508,3.657c0,2.017-1.574,3.657-3.508,3.657c-1.935,0-3.509-1.641-3.509-3.657
	C16.437,4.079,18.01,2.438,19.945,2.438z M8.249,2.438c1.935,0,3.509,1.641,3.509,3.657c0,2.017-1.574,3.657-3.509,3.657
	S4.74,8.112,4.74,6.095C4.74,4.079,6.314,2.438,8.249,2.438z M11.773,18.368v1.219h-9.45v-1.219c0-3.348,2.714-6.177,5.926-6.177
	c1.732,0,3.354,0.793,4.459,2.152C12.102,15.544,11.773,16.915,11.773,18.368z M25.809,19.586H14.097v-1.219
	c0-3.406,2.624-6.177,5.848-6.177c3.225,0,5.864,2.771,5.864,6.177V19.586L25.809,19.586z M37.583,19.586h-9.45v-1.219
	c0-1.453-0.344-2.823-0.95-4.025c1.105-1.358,2.727-2.152,4.459-2.152c3.212,0,5.941,2.829,5.941,6.177V19.586L37.583,19.586z"/>
</svg>
